<?xml version="1.0" encoding="UTF-8" standalone="no"?>
<!-- Created with Inkscape (http://www.inkscape.org/) -->

<svg
   xmlns:dc="http://purl.org/dc/elements/1.1/"
   xmlns:cc="http://creativecommons.org/ns#"
   xmlns:rdf="http://www.w3.org/1999/02/22-rdf-syntax-ns#"
   xmlns:svg="http://www.w3.org/2000/svg"
   xmlns="http://www.w3.org/2000/svg"
   version="1.1"
   width="267.77399"
   height="246.11501"
   viewBox="0 0 267.77399 246.11501"
   id="svg2"
   xml:space="preserve"><metadata
   id="metadata40"><rdf:RDF><cc:Work
       rdf:about=""><dc:format>image/svg+xml</dc:format><dc:type
         rdf:resource="http://purl.org/dc/dcmitype/StillImage" /><dc:title></dc:title></cc:Work></rdf:RDF></metadata><defs
   id="defs38" />
<g
   transform="translate(-262.012,-183.552)"
   id="Layer_2">
	<path
   d="M 529.786,429.667 H 262.012 V 183.552 h 267.774 v 246.115 z"
   id="path5"
   style="fill:#124191" />
</g>
<g
   transform="translate(-262.012,-183.552)"
   id="Layer_1">
	<g
   id="g8">
		<path
   d="m 427.128,314.495 11.491,-11.49 -12.418,-12.42 c -10.102,-10.101 -7.137,-15.475 -4.818,-17.793 1.482,-1.482 2.965,-2.594 3.985,-3.15 1.39,2.688 3.243,5.283 5.56,7.507 12.048,12.14 25.208,10.472 35.311,0.279 6.024,-6.025 8.896,-11.585 9.638,-14.366 l -9.916,-5.468 c -1.204,2.595 -3.985,7.044 -7.136,10.195 -5.469,5.561 -10.658,5.561 -14.18,2.688 l 20.666,-20.574 -2.594,-2.595 c -12.142,-12.234 -23.448,-12.882 -33.642,-2.687 -6.768,6.765 -7.692,15.105 -4.728,22.705 l -7.6,-8.989 c -0.74,0.277 -2.131,1.389 -3.522,2.78 -3.983,4.078 -4.911,10.379 -3.891,14.55 l -5.099,-4.355 -10.101,10.103 13.901,13.902 c -11.029,-9.083 -20.946,-8.619 -30.12,0.555 -9.268,9.268 -8.712,20.574 -1.021,30.027 l -1.297,-1.297 c -8.248,-8.248 -16.219,-10.008 -24.097,-2.039 -4.633,4.541 -5.375,8.99 -4.912,12.975 l -19.461,-19.369 -11.308,11.307 37.627,37.721 h 22.985 l -15.848,-15.848 c -5.56,-5.469 -7.229,-9.27 -3.8,-12.697 2.503,-2.594 5.376,-2.502 8.899,1.018 l 19.09,19.186 11.492,-11.492 -14.271,-14.271 c 11.306,9.359 23.633,7.043 32.991,-2.41 4.912,-4.82 7.602,-9.27 8.898,-12.326 l -10.102,-5.654 c -1.482,2.596 -3.708,5.838 -6.116,8.342 -5.563,5.561 -10.752,5.561 -14.273,2.688 l 20.483,-20.482 13.254,13.244 z m -40.963,0.93 c -3.152,-3.615 -3.244,-7.877 0,-11.123 3.151,-3.15 7.229,-3.244 11.214,0 l -11.214,11.123 z m 51.251,-51.252 c -3.152,-3.614 -3.243,-7.785 0,-11.121 3.15,-3.151 7.229,-3.244 11.121,0 l -11.121,11.121 z"
   id="path10"
   style="fill:#ffffff" />
	</g>
	<g
   id="g12">
		<path
   d="m 316.505,386.566 h 2.828 l 5.824,11.899 5.796,-11.899 h 2.828 v 19.684 h -2.52 v -15.288 l -5.068,10.248 h -2.268 l -4.9,-9.968 v 15.008 h -2.52 v -19.684 z"
   id="path14"
   style="fill:#ffffff" />
		<path
   d="m 346.493,406.25 -0.112,-1.568 c -0.43,0.598 -1.055,1.069 -1.876,1.414 -0.821,0.346 -1.671,0.519 -2.548,0.519 -0.56,0 -1.12,-0.075 -1.68,-0.225 -0.56,-0.148 -1.064,-0.392 -1.512,-0.728 -0.448,-0.336 -0.817,-0.784 -1.106,-1.344 -0.29,-0.561 -0.434,-1.251 -0.434,-2.072 0,-1.438 0.466,-2.585 1.4,-3.444 0.933,-0.858 2.333,-1.288 4.2,-1.288 0.298,0 0.634,0.01 1.008,0.028 0.373,0.019 0.728,0.042 1.064,0.07 0.336,0.027 0.634,0.056 0.896,0.084 0.261,0.027 0.438,0.052 0.532,0.069 v -0.867 c 0,-1.026 -0.304,-1.765 -0.91,-2.213 -0.607,-0.447 -1.47,-0.672 -2.59,-0.672 -1.008,0 -1.862,0.112 -2.562,0.336 -0.7,0.225 -1.209,0.43 -1.526,0.616 l -0.756,-1.764 c 0.168,-0.112 0.401,-0.242 0.7,-0.393 0.298,-0.148 0.667,-0.294 1.106,-0.434 0.438,-0.14 0.942,-0.257 1.512,-0.35 0.569,-0.094 1.208,-0.141 1.918,-0.141 1.699,0 3.042,0.416 4.032,1.246 0.989,0.831 1.484,2.04 1.484,3.626 v 9.492 h -2.24 z m -0.168,-6.524 c -0.019,0 -0.14,-0.018 -0.364,-0.056 -0.224,-0.037 -0.504,-0.07 -0.84,-0.098 -0.336,-0.028 -0.7,-0.057 -1.092,-0.084 -0.392,-0.028 -0.756,-0.042 -1.092,-0.042 -0.598,0 -1.106,0.074 -1.526,0.224 -0.42,0.15 -0.761,0.35 -1.022,0.603 -0.262,0.252 -0.453,0.546 -0.574,0.882 -0.122,0.336 -0.182,0.699 -0.182,1.092 0,0.803 0.266,1.4 0.798,1.792 0.532,0.392 1.227,0.588 2.086,0.588 0.466,0 0.924,-0.074 1.372,-0.224 0.448,-0.149 0.854,-0.359 1.218,-0.63 0.364,-0.271 0.658,-0.589 0.882,-0.952 0.224,-0.364 0.336,-0.771 0.336,-1.219 v -1.876 z"
   id="path16"
   style="fill:#ffffff" />
		<path
   d="m 352.512,412.41 v -20.16 h 2.296 l 0.112,1.82 c 0.13,-0.225 0.317,-0.467 0.56,-0.729 0.242,-0.261 0.546,-0.499 0.91,-0.714 0.364,-0.214 0.779,-0.392 1.246,-0.532 0.466,-0.14 0.999,-0.21 1.596,-0.21 1.026,0 1.922,0.188 2.688,0.561 0.765,0.373 1.4,0.887 1.904,1.54 0.504,0.653 0.877,1.414 1.12,2.281 0.242,0.868 0.364,1.807 0.364,2.814 0,1.382 -0.187,2.539 -0.56,3.472 -0.374,0.934 -0.863,1.694 -1.47,2.282 -0.607,0.588 -1.298,1.008 -2.072,1.26 -0.774,0.252 -1.554,0.378 -2.338,0.378 -0.952,0 -1.736,-0.107 -2.352,-0.321 -0.616,-0.215 -1.12,-0.435 -1.512,-0.658 v 6.916 h -2.492 z m 2.464,-9.352 c 0.298,0.262 0.761,0.537 1.386,0.826 0.625,0.29 1.386,0.435 2.282,0.435 1.25,0 2.245,-0.416 2.982,-1.246 0.737,-0.831 1.106,-2.16 1.106,-3.99 0,-0.709 -0.075,-1.367 -0.224,-1.974 -0.15,-0.606 -0.383,-1.13 -0.7,-1.568 -0.317,-0.438 -0.714,-0.779 -1.19,-1.022 -0.476,-0.242 -1.041,-0.363 -1.694,-0.363 -1.288,0 -2.268,0.447 -2.94,1.344 -0.672,0.896 -1.008,2.277 -1.008,4.144 v 3.414 z"
   id="path18"
   style="fill:#ffffff" />
		<path
   d="m 368.416,403.254 c 0.466,0.243 1.11,0.514 1.932,0.813 0.821,0.299 1.792,0.447 2.912,0.447 0.616,0 1.129,-0.051 1.54,-0.153 0.41,-0.103 0.737,-0.243 0.98,-0.42 0.242,-0.178 0.41,-0.388 0.504,-0.631 0.093,-0.242 0.14,-0.504 0.14,-0.783 0,-0.522 -0.187,-0.957 -0.56,-1.303 -0.374,-0.345 -1.046,-0.61 -2.016,-0.798 l -1.736,-0.336 c -0.598,-0.112 -1.148,-0.271 -1.652,-0.476 -0.504,-0.205 -0.942,-0.472 -1.316,-0.798 -0.374,-0.327 -0.667,-0.715 -0.882,-1.162 -0.215,-0.448 -0.322,-0.971 -0.322,-1.568 0,-0.635 0.13,-1.208 0.392,-1.722 0.262,-0.514 0.63,-0.952 1.106,-1.316 0.476,-0.364 1.045,-0.648 1.708,-0.854 0.663,-0.206 1.405,-0.309 2.226,-0.309 1.083,0 2.053,0.131 2.912,0.393 0.858,0.262 1.559,0.551 2.1,0.868 l -0.784,1.819 c -0.131,-0.074 -0.341,-0.168 -0.63,-0.28 -0.29,-0.111 -0.621,-0.219 -0.994,-0.321 -0.373,-0.102 -0.784,-0.191 -1.232,-0.267 -0.448,-0.074 -0.906,-0.111 -1.372,-0.111 -1.045,0 -1.811,0.173 -2.296,0.518 -0.486,0.346 -0.728,0.836 -0.728,1.47 0,0.262 0.037,0.49 0.112,0.687 0.075,0.197 0.21,0.373 0.406,0.532 0.196,0.158 0.462,0.299 0.798,0.42 0.336,0.121 0.765,0.229 1.288,0.321 l 1.764,0.336 c 0.653,0.131 1.241,0.299 1.764,0.505 0.522,0.205 0.966,0.467 1.33,0.783 0.364,0.318 0.644,0.7 0.84,1.148 0.196,0.448 0.294,0.979 0.294,1.596 0,1.307 -0.49,2.353 -1.47,3.137 -0.98,0.783 -2.375,1.176 -4.186,1.176 -1.307,0 -2.45,-0.168 -3.43,-0.504 -0.98,-0.336 -1.75,-0.69 -2.31,-1.064 l 0.868,-1.793 z"
   id="path20"
   style="fill:#ffffff" />
		<path
   d="m 387.539,394.35 v -2.1 h 2.66 v -1.596 c 0,-0.84 0.103,-1.614 0.308,-2.324 0.205,-0.709 0.522,-1.316 0.952,-1.82 0.43,-0.504 0.989,-0.9 1.68,-1.189 0.69,-0.289 1.512,-0.435 2.464,-0.435 0.635,0 1.186,0.042 1.652,0.126 0.466,0.084 0.765,0.146 0.896,0.183 l -0.279,1.903 c -0.094,-0.018 -0.322,-0.046 -0.687,-0.084 -0.364,-0.037 -0.742,-0.056 -1.134,-0.056 -1.064,0 -1.89,0.285 -2.478,0.854 -0.588,0.57 -0.882,1.582 -0.882,3.038 v 1.4 h 4.34 v 2.1 h -4.34 v 11.9 h -2.492 v -11.9 h -2.66 z"
   id="path22"
   style="fill:#ffffff" />
		<path
   d="m 404.844,406.614 c -1.064,0 -2.017,-0.178 -2.856,-0.532 -0.839,-0.354 -1.545,-0.854 -2.114,-1.498 -0.569,-0.644 -1.004,-1.418 -1.302,-2.324 -0.299,-0.905 -0.448,-1.908 -0.448,-3.01 0,-1.082 0.149,-2.076 0.448,-2.982 0.298,-0.904 0.737,-1.684 1.315,-2.338 0.579,-0.653 1.283,-1.157 2.115,-1.512 0.83,-0.354 1.777,-0.532 2.842,-0.532 1.063,0 2.011,0.178 2.842,0.532 0.83,0.354 1.535,0.854 2.113,1.498 0.579,0.644 1.018,1.419 1.316,2.324 0.298,0.905 0.448,1.908 0.448,3.01 0,1.12 -0.149,2.133 -0.448,3.038 -0.299,0.905 -0.732,1.68 -1.302,2.324 -0.569,0.644 -1.274,1.139 -2.114,1.483 -0.84,0.346 -1.792,0.519 -2.855,0.519 z m 0,-2.212 c 1.418,0 2.463,-0.477 3.136,-1.429 0.672,-0.951 1.008,-2.192 1.008,-3.724 0,-0.746 -0.084,-1.433 -0.252,-2.058 -0.168,-0.626 -0.425,-1.167 -0.771,-1.624 -0.346,-0.458 -0.779,-0.816 -1.302,-1.078 -0.523,-0.262 -1.13,-0.393 -1.819,-0.393 -1.382,0 -2.418,0.477 -3.108,1.429 -0.69,0.951 -1.036,2.193 -1.036,3.724 0,0.766 0.084,1.466 0.252,2.1 0.168,0.635 0.42,1.177 0.756,1.624 0.336,0.448 0.766,0.799 1.288,1.051 0.522,0.252 1.138,0.378 1.848,0.378 z"
   id="path24"
   style="fill:#ffffff" />
		<path
   d="m 422.985,394.378 c -0.094,-0.037 -0.275,-0.074 -0.546,-0.112 -0.271,-0.037 -0.546,-0.056 -0.826,-0.056 -1.307,0 -2.352,0.504 -3.136,1.512 -0.784,1.009 -1.176,2.455 -1.176,4.34 v 6.188 h -2.492 v -14 h 2.296 l 0.112,2.38 c 0.168,-0.317 0.387,-0.63 0.658,-0.938 0.27,-0.309 0.592,-0.579 0.966,-0.813 0.373,-0.233 0.798,-0.424 1.273,-0.574 0.477,-0.148 1.004,-0.224 1.582,-0.224 0.262,0 0.564,0.023 0.91,0.07 0.346,0.047 0.546,0.079 0.603,0.098 l -0.224,2.129 z"
   id="path26"
   style="fill:#ffffff" />
		<path
   d="m 435.642,403.926 h 8.596 v 2.324 h -11.172 v -19.684 h 2.576 v 17.36 z"
   id="path28"
   style="fill:#ffffff" />
		<path
   d="m 449.417,387.714 c 0,0.504 -0.145,0.915 -0.434,1.232 -0.29,0.317 -0.687,0.476 -1.19,0.476 -0.503,0 -0.9,-0.163 -1.19,-0.49 -0.289,-0.326 -0.434,-0.732 -0.434,-1.218 0,-0.486 0.145,-0.891 0.434,-1.218 0.29,-0.326 0.687,-0.49 1.19,-0.49 0.503,0 0.9,0.159 1.19,0.477 0.289,0.317 0.434,0.727 0.434,1.231 z m -2.856,4.536 h 2.492 v 14 h -2.492 v -14 z"
   id="path30"
   style="fill:#ffffff" />
		<path
   d="m 451.854,394.35 v -2.1 h 2.66 v -1.596 c 0,-0.84 0.103,-1.614 0.308,-2.324 0.206,-0.709 0.522,-1.316 0.952,-1.82 0.43,-0.504 0.989,-0.9 1.681,-1.189 0.69,-0.289 1.512,-0.435 2.464,-0.435 0.634,0 1.185,0.042 1.651,0.126 0.466,0.084 0.766,0.146 0.896,0.183 l -0.28,1.903 c -0.094,-0.018 -0.322,-0.046 -0.686,-0.084 -0.364,-0.037 -0.742,-0.056 -1.135,-0.056 -1.063,0 -1.89,0.285 -2.478,0.854 -0.588,0.57 -0.882,1.582 -0.882,3.038 v 1.4 h 4.34 v 2.1 h -4.34 v 11.9 h -2.492 v -11.9 h -2.659 z"
   id="path32"
   style="fill:#ffffff" />
		<path
   d="m 474.394,405.606 c -0.094,0.056 -0.271,0.14 -0.532,0.252 -0.262,0.111 -0.588,0.224 -0.979,0.336 -0.393,0.111 -0.845,0.21 -1.358,0.294 -0.513,0.084 -1.087,0.126 -1.722,0.126 -2.334,0 -4.088,-0.653 -5.264,-1.96 -1.177,-1.307 -1.765,-3.117 -1.765,-5.433 0,-1.082 0.141,-2.076 0.42,-2.981 0.28,-0.905 0.69,-1.681 1.232,-2.324 0.541,-0.644 1.208,-1.144 2.002,-1.498 0.793,-0.354 1.712,-0.532 2.758,-0.532 0.952,0 1.802,0.146 2.548,0.435 0.747,0.289 1.382,0.741 1.904,1.357 0.522,0.616 0.924,1.405 1.204,2.366 0.28,0.962 0.42,2.114 0.42,3.458 v 0.392 h -9.968 c 0.093,1.363 0.508,2.455 1.246,3.276 0.737,0.821 1.89,1.232 3.458,1.232 0.97,0 1.768,-0.084 2.394,-0.252 0.625,-0.168 1.068,-0.299 1.33,-0.393 l 0.672,1.849 z m -1.708,-7.644 c -0.094,-1.27 -0.406,-2.249 -0.938,-2.939 -0.532,-0.69 -1.387,-1.036 -2.563,-1.036 -1.194,0 -2.086,0.354 -2.674,1.063 -0.588,0.71 -0.976,1.681 -1.162,2.912 h 7.337 z"
   id="path34"
   style="fill:#ffffff" />
	</g>
</g>
</svg>